# Blender v2.92.0 OBJ File: 'Anubis_FourDoorRoom.blend'
# www.blender.org
mtllib Anubis_FourDoorRoom.mtl
g Floor
v 10.000000 0.000000 -10.000000
v 10.000000 0.000000 0.000000
v 0.000000 0.000000 -10.000000
v 0.000000 0.000000 0.000000
vt 0.014862 0.525787
vt 0.014862 0.525787
vt 0.014862 0.525787
vt 0.014862 0.525787
vn 0.0000 1.0000 0.0000
usemtl Material.002
s off
f 2/1/1 1/2/1 3/3/1 4/4/1
g Walls
v 9.900000 7.800000 -0.109091
v 0.100000 7.800000 -0.109091
v 3.500000 4.500000 -0.109091
v 6.500000 4.500000 -0.109091
v 9.900000 1.190000 -0.109091
v 0.100000 1.190000 -0.109091
v 3.500000 1.190000 -0.109091
v 6.500000 1.190000 -0.109091
v 0.100000 7.800000 -0.109091
v 0.100000 7.800000 -9.909091
v 0.100000 4.500000 -6.509091
v 0.100000 4.500000 -3.509091
v 0.100000 1.190000 -0.109091
v 0.100000 1.190000 -9.909091
v 0.100000 1.190000 -6.509091
v 0.100000 1.190000 -3.509091
v 0.099999 7.800000 -9.909091
v 9.899999 7.800000 -9.909092
v 6.499999 4.500000 -9.909092
v 3.499999 4.500000 -9.909091
v 0.099999 1.190000 -9.909091
v 9.899999 1.190000 -9.909092
v 6.499999 1.190000 -9.909092
v 3.499999 1.190000 -9.909091
v 9.899999 7.800000 -9.909091
v 9.900000 7.800000 -0.109091
v 9.900000 4.500000 -3.509092
v 9.900000 4.500000 -6.509091
v 9.899999 1.190000 -9.909091
v 9.900000 1.190000 -0.109091
v 9.900000 1.190000 -3.509092
v 9.900000 1.190000 -6.509091
vt 0.101673 0.426575
vt 0.101673 0.426575
vt 0.101673 0.426575
vt 0.101673 0.426575
vt 0.101673 0.426575
vt 0.101673 0.426575
vt 0.101673 0.426575
vt 0.101673 0.426575
vt 0.101673 0.426575
vt 0.101673 0.426575
vt 0.101673 0.426575
vt 0.101673 0.426575
vt 0.101673 0.426575
vt 0.101673 0.426575
vt 0.101673 0.426575
vt 0.101673 0.426575
vt 0.101673 0.426575
vt 0.101673 0.426575
vt 0.101673 0.426575
vt 0.101673 0.426575
vt 0.101673 0.426575
vt 0.101673 0.426575
vt 0.101673 0.426575
vt 0.101673 0.426575
vt 0.101673 0.426575
vt 0.101673 0.426575
vt 0.101673 0.426575
vt 0.101673 0.426575
vt 0.101673 0.426575
vt 0.101673 0.426575
vt 0.101673 0.426575
vt 0.101673 0.426575
vn 0.0000 0.0000 -1.0000
vn 1.0000 0.0000 0.0000
vn 0.0000 0.0000 1.0000
vn -1.0000 -0.0000 0.0000
usemtl Material.002
s off
f 5/5/2 9/6/2 12/7/2 8/8/2 7/9/2 11/10/2 10/11/2 6/12/2
f 19/13/3 18/14/3 14/15/3 13/16/3 17/17/3 20/18/3 16/19/3 15/20/3
f 21/21/4 25/22/4 28/23/4 24/24/4 23/25/4 27/26/4 26/27/4 22/28/4
f 35/29/5 34/30/5 30/31/5 29/32/5 33/33/5 36/34/5 32/35/5 31/36/5
g Ceiling
v 9.900000 7.800000 -9.909091
v 9.900000 7.800000 -0.109091
v 0.100000 7.800000 -9.909091
v 0.100000 7.800000 -0.109091
vt 0.721752 0.426575
vt 0.721752 0.426575
vt 0.721752 0.426575
vt 0.721752 0.426575
vn 0.0000 -1.0000 0.0000
usemtl Material.002
s off
f 38/37/6 40/38/6 39/39/6 37/40/6
g WallTrim_WallTrim.001
v 0.109530 0.000220 -9.879470
v 9.890471 0.000220 -9.879473
v 6.525000 0.000220 -9.879472
v 3.475000 0.000220 -9.879471
v 0.100000 1.190000 -9.890906
v 9.900001 1.190000 -9.890909
v 6.500000 1.190000 -9.890908
v 3.500000 1.190000 -9.890907
v 0.100000 0.975800 -9.890906
v 9.900001 0.975800 -9.890909
v 6.500000 0.975800 -9.890908
v 3.500000 0.975800 -9.890907
v 0.113184 1.176903 -9.875087
v 9.886817 1.176903 -9.875090
v 6.495964 1.176903 -9.875089
v 3.504036 1.176903 -9.875088
v 0.113184 1.160986 -9.875087
v 9.886817 1.160986 -9.875090
v 6.495964 1.160986 -9.875089
v 3.504036 1.160986 -9.875088
v 0.100000 1.026342 -9.890906
v 9.900001 1.026342 -9.890909
v 6.500000 1.026342 -9.890908
v 3.500000 1.026342 -9.890907
v 0.106879 0.989110 -9.882651
v 9.893122 0.989110 -9.882654
v 6.497894 0.989110 -9.882653
v 3.502106 0.989110 -9.882652
v 0.106879 1.004421 -9.882651
v 9.893122 1.004421 -9.882654
v 6.497894 1.004421 -9.882653
v 3.502106 1.004421 -9.882652
v 0.100000 1.143133 -9.890906
v 9.900001 1.143133 -9.890909
v 6.500000 1.143133 -9.890908
v 3.500000 1.143133 -9.890907
v 0.100000 0.263466 -9.890906
v 9.900001 0.263466 -9.890909
v 6.500000 0.263466 -9.890908
v 3.500000 0.263466 -9.890907
v 0.109530 0.226360 -9.879470
v 9.890471 0.226360 -9.879473
v 6.525000 0.226360 -9.879472
v 3.475000 0.226360 -9.879471
v 9.888564 0.000220 -9.881378
v 9.888567 0.000220 -0.100439
v 9.888566 0.000220 -3.465909
v 9.888565 0.000220 -6.515909
v 9.900001 1.190000 -9.890908
v 9.900003 1.190000 -0.090909
v 9.900002 1.190000 -3.490909
v 9.900002 1.190000 -6.490909
v 9.900001 0.975800 -9.890908
v 9.900003 0.975800 -0.090909
v 9.900002 0.975800 -3.490909
v 9.900002 0.975800 -6.490909
v 9.884181 1.176903 -9.877725
v 9.884184 1.176903 -0.104092
v 9.884183 1.176903 -3.494945
v 9.884182 1.176903 -6.486873
v 9.884181 1.160986 -9.877725
v 9.884184 1.160986 -0.104092
v 9.884183 1.160986 -3.494945
v 9.884182 1.160986 -6.486873
v 9.900001 1.026342 -9.890908
v 9.900003 1.026342 -0.090909
v 9.900002 1.026342 -3.490909
v 9.900002 1.026342 -6.490909
v 9.891747 0.989110 -9.884029
v 9.891748 0.989110 -0.097788
v 9.891747 0.989110 -3.493015
v 9.891747 0.989110 -6.488803
v 9.891747 1.004421 -9.884029
v 9.891748 1.004421 -0.097788
v 9.891747 1.004421 -3.493015
v 9.891747 1.004421 -6.488803
v 9.900001 1.143133 -9.890908
v 9.900003 1.143133 -0.090909
v 9.900002 1.143133 -3.490909
v 9.900002 1.143133 -6.490909
v 9.900001 0.263466 -9.890908
v 9.900003 0.263466 -0.090909
v 9.900002 0.263466 -3.490909
v 9.900002 0.263466 -6.490909
v 9.888564 0.226360 -9.881378
v 9.888567 0.226360 -0.100439
v 9.888566 0.226360 -3.465909
v 9.888565 0.226360 -6.515909
v 9.890470 0.000220 -0.120527
v 0.109530 0.000220 -0.120527
v 3.475000 0.000220 -0.120527
v 6.525001 0.000220 -0.120527
v 9.900000 1.190000 -0.109091
v 0.100000 1.190000 -0.109091
v 3.500000 1.190000 -0.109091
v 6.500000 1.190000 -0.109091
v 9.900000 0.975800 -0.109091
v 0.100000 0.975800 -0.109091
v 3.500000 0.975800 -0.109091
v 6.500000 0.975800 -0.109091
v 9.886816 1.176903 -0.124910
v 0.113183 1.176903 -0.124910
v 3.504036 1.176903 -0.124910
v 6.495964 1.176903 -0.124910
v 9.886816 1.160986 -0.124910
v 0.113183 1.160986 -0.124910
v 3.504036 1.160986 -0.124910
v 6.495964 1.160986 -0.124910
v 9.900000 1.026342 -0.109091
v 0.100000 1.026342 -0.109091
v 3.500000 1.026342 -0.109091
v 6.500000 1.026342 -0.109091
v 9.893121 0.989110 -0.117345
v 0.106879 0.989110 -0.117345
v 3.502106 0.989110 -0.117345
v 6.497895 0.989110 -0.117345
v 9.893121 1.004421 -0.117345
v 0.106879 1.004421 -0.117345
v 3.502106 1.004421 -0.117345
v 6.497895 1.004421 -0.117345
v 9.900000 1.143133 -0.109091
v 0.100000 1.143133 -0.109091
v 3.500000 1.143133 -0.109091
v 6.500000 1.143133 -0.109091
v 9.900000 0.263466 -0.109091
v 0.100000 0.263466 -0.109091
v 3.500000 0.263466 -0.109091
v 6.500000 0.263466 -0.109091
v 9.890470 0.226360 -0.120527
v 0.109530 0.226360 -0.120527
v 3.475000 0.226360 -0.120527
v 6.525001 0.226360 -0.120527
v 0.111436 0.000220 -0.118621
v 0.111437 0.000220 -9.899561
v 0.111437 0.000220 -6.534091
v 0.111437 0.000220 -3.484090
v 0.099999 1.190000 -0.109091
v 0.100000 1.190000 -9.909091
v 0.100000 1.190000 -6.509090
v 0.100000 1.190000 -3.509090
v 0.099999 0.975800 -0.109091
v 0.100000 0.975800 -9.909091
v 0.100000 0.975800 -6.509090
v 0.100000 0.975800 -3.509090
v 0.115819 1.176903 -0.122274
v 0.115820 1.176903 -9.895908
v 0.115820 1.176903 -6.505055
v 0.115820 1.176903 -3.513126
v 0.115819 1.160986 -0.122274
v 0.115820 1.160986 -9.895908
v 0.115820 1.160986 -6.505055
v 0.115820 1.160986 -3.513126
v 0.099999 1.026342 -0.109091
v 0.100000 1.026342 -9.909091
v 0.100000 1.026342 -6.509090
v 0.100000 1.026342 -3.509090
v 0.108254 0.989110 -0.115970
v 0.108254 0.989110 -9.902212
v 0.108254 0.989110 -6.506985
v 0.108254 0.989110 -3.511196
v 0.108254 1.004421 -0.115970
v 0.108254 1.004421 -9.902212
v 0.108254 1.004421 -6.506985
v 0.108254 1.004421 -3.511196
v 0.099999 1.143133 -0.109091
v 0.100000 1.143133 -9.909091
v 0.100000 1.143133 -6.509090
v 0.100000 1.143133 -3.509090
v 0.099999 0.263466 -0.109091
v 0.100000 0.263466 -9.909091
v 0.100000 0.263466 -6.509090
v 0.100000 0.263466 -3.509090
v 0.111436 0.226360 -0.118621
v 0.111437 0.226360 -9.899561
v 0.111437 0.226360 -6.534091
v 0.111437 0.226360 -3.484090
vt 0.271161 0.525787
vt 0.271161 0.525787
vt 0.271161 0.525787
vt 0.271161 0.525787
vt 0.271161 0.525787
vt 0.271161 0.525787
vt 0.271161 0.525787
vt 0.271161 0.525787
vt 0.271161 0.525787
vt 0.271161 0.525787
vt 0.271161 0.525787
vt 0.271161 0.525787
vt 0.271161 0.525787
vt 0.271161 0.525787
vt 0.271161 0.525787
vt 0.271161 0.525787
vt 0.271161 0.525787
vt 0.271161 0.525787
vt 0.271161 0.525787
vt 0.271161 0.525787
vt 0.271161 0.525787
vt 0.271161 0.525787
vt 0.271161 0.525787
vt 0.271161 0.525787
vt 0.271161 0.525787
vt 0.271161 0.525787
vt 0.271161 0.525787
vt 0.271161 0.525787
vt 0.271161 0.525787
vt 0.271161 0.525787
vt 0.271161 0.525787
vt 0.271161 0.525787
vt 0.271161 0.525787
vt 0.271161 0.525787
vt 0.271161 0.525787
vt 0.271161 0.525787
vt 0.271161 0.525787
vt 0.271161 0.525787
vt 0.271161 0.525787
vt 0.271161 0.525787
vt 0.271161 0.525787
vt 0.271161 0.525787
vt 0.271161 0.525787
vt 0.271161 0.525787
vt 0.271161 0.525787
vt 0.271161 0.525787
vt 0.271161 0.525787
vt 0.271161 0.525787
vt 0.271161 0.525787
vt 0.271161 0.525787
vt 0.271161 0.525787
vt 0.271161 0.525787
vt 0.271161 0.525787
vt 0.271161 0.525787
vt 0.271161 0.525787
vt 0.271161 0.525787
vt 0.271161 0.525787
vt 0.271161 0.525787
vt 0.271161 0.525787
vt 0.271161 0.525787
vt 0.271161 0.525787
vt 0.271161 0.525787
vt 0.271161 0.525787
vt 0.271161 0.525787
vt 0.271161 0.525787
vt 0.271161 0.525787
vt 0.271161 0.525787
vt 0.271161 0.525787
vt 0.271161 0.525787
vt 0.271161 0.525787
vt 0.271161 0.525787
vt 0.271161 0.525787
vt 0.271161 0.525787
vt 0.271161 0.525787
vt 0.271161 0.525787
vt 0.271161 0.525787
vt 0.271161 0.525787
vt 0.271161 0.525787
vt 0.271161 0.525787
vt 0.271161 0.525787
vt 0.271161 0.525787
vt 0.271161 0.525787
vt 0.271161 0.525787
vt 0.271161 0.525787
vt 0.271161 0.525787
vt 0.271161 0.525787
vt 0.271161 0.525787
vt 0.271161 0.525787
vt 0.271161 0.525787
vt 0.271161 0.525787
vt 0.271161 0.525787
vt 0.271161 0.525787
vt 0.271161 0.525787
vt 0.271161 0.525787
vt 0.271161 0.525787
vt 0.271161 0.525787
vt 0.271161 0.525787
vt 0.271161 0.525787
vt 0.271161 0.525787
vt 0.271161 0.525787
vt 0.271161 0.525787
vt 0.271161 0.525787
vt 0.271161 0.525787
vt 0.271161 0.525787
vt 0.271161 0.525787
vt 0.271161 0.525787
vt 0.271161 0.525787
vt 0.271161 0.525787
vt 0.271161 0.525787
vt 0.271161 0.525787
vt 0.271161 0.525787
vt 0.271161 0.525787
vt 0.271161 0.525787
vt 0.271161 0.525787
vt 0.271161 0.525787
vt 0.271161 0.525787
vt 0.271161 0.525787
vt 0.271161 0.525787
vt 0.271161 0.525787
vt 0.271161 0.525787
vt 0.271161 0.525787
vt 0.271161 0.525787
vt 0.271161 0.525787
vt 0.271161 0.525787
vt 0.271161 0.525787
vt 0.271161 0.525787
vt 0.271161 0.525787
vt 0.271161 0.525787
vt 0.271161 0.525787
vt 0.271161 0.525787
vt 0.271161 0.525787
vt 0.271161 0.525787
vt 0.271161 0.525787
vt 0.271161 0.525787
vt 0.271161 0.525787
vt 0.271161 0.525787
vt 0.271161 0.525787
vt 0.271161 0.525787
vt 0.271161 0.525787
vt 0.271161 0.525787
vt 0.271161 0.525787
vt 0.271161 0.525787
vt 0.271161 0.525787
vt 0.271161 0.525787
vt 0.271161 0.525787
vt 0.271161 0.525787
vt 0.271161 0.525787
vt 0.271161 0.525787
vt 0.271161 0.525787
vt 0.271161 0.525787
vt 0.271161 0.525787
vt 0.271161 0.525787
vt 0.271161 0.525787
vt 0.271161 0.525787
vt 0.271161 0.525787
vt 0.271161 0.525787
vt 0.271161 0.525787
vt 0.271161 0.525787
vt 0.271161 0.525787
vt 0.271161 0.525787
vt 0.271161 0.525787
vt 0.271161 0.525787
vt 0.271161 0.525787
vt 0.271161 0.525787
vt 0.271161 0.525787
vt 0.271161 0.525787
vt 0.271161 0.525787
vt 0.271161 0.525787
vt 0.271161 0.525787
vt 0.271161 0.525787
vt 0.271161 0.525787
vt 0.271161 0.525787
vt 0.271161 0.525787
vt 0.271161 0.525787
vt 0.271161 0.525787
vt 0.271161 0.525787
vn 0.0000 0.0000 1.0000
vn -1.0000 0.0000 0.0000
vn 0.0000 -0.5271 0.8498
vn 0.0000 0.7703 0.6377
vn -0.6377 0.7703 0.0000
vn 0.0000 0.3524 0.9358
vn -0.8498 -0.5271 0.0000
vn 0.0000 -0.6632 0.7484
vn -0.8499 -0.5270 0.0000
vn 0.0000 0.2945 0.9556
vn -0.9359 0.3524 0.0000
vn -0.9358 0.3524 0.0000
vn -0.7484 -0.6632 0.0000
vn -0.7485 -0.6632 0.0000
vn -0.9556 0.2945 0.0000
vn 0.0000 0.0000 -1.0000
vn 1.0000 0.0000 0.0000
vn 0.0000 -0.5270 -0.8499
vn 0.0000 0.7703 -0.6377
vn 0.6377 0.7703 0.0000
vn 0.0000 0.3524 -0.9359
vn 0.8499 -0.5270 0.0000
vn 0.0000 -0.6632 -0.7484
vn 0.8498 -0.5270 0.0000
vn 0.0000 0.2945 -0.9556
vn 0.9358 0.3524 0.0000
vn 0.9359 0.3524 0.0000
vn 0.7484 -0.6632 0.0000
vn 0.9556 0.2945 0.0000
usemtl Material.002
s off
f 83/41/7 43/42/7 42/43/7 82/44/7
f 117/45/8 105/46/8 108/47/8 120/48/8
f 81/49/7 41/50/7 44/51/7 84/52/7
f 65/53/9 49/54/9 52/55/9 68/56/9
f 119/57/8 107/58/8 106/59/8 118/60/8
f 67/61/9 51/62/9 50/63/9 66/64/9
f 47/65/10 55/66/10 54/67/10 46/68/10
f 97/69/8 101/70/8 104/71/8 100/72/8
f 45/73/10 53/74/10 56/75/10 48/76/10
f 55/66/7 59/77/7 58/78/7 54/67/7
f 99/79/8 103/80/8 102/81/8 98/82/8
f 53/74/7 57/83/7 60/84/7 56/75/7
f 75/85/7 63/86/7 62/87/7 74/88/7
f 89/89/11 97/69/11 100/72/11 92/90/11
f 73/91/7 61/92/7 64/93/7 76/94/7
f 71/95/7 67/61/7 66/64/7 70/96/7
f 91/97/11 99/79/11 98/82/11 90/98/11
f 69/99/7 65/53/7 68/56/7 72/100/7
f 61/92/12 69/99/12 72/100/12 64/93/12
f 111/101/13 95/102/13 94/103/13 110/104/13
f 63/86/12 71/95/12 70/96/12 62/87/12
f 57/83/14 73/91/14 76/94/14 60/84/14
f 109/105/15 93/106/15 96/107/15 112/108/15
f 59/77/14 75/85/14 74/88/14 58/78/14
f 49/54/7 77/109/7 80/110/7 52/55/7
f 125/111/8 85/112/8 88/113/8 128/114/8
f 51/62/7 79/115/7 78/116/7 50/63/7
f 77/109/16 81/49/16 84/52/16 80/110/16
f 127/117/8 87/118/8 86/119/8 126/120/8
f 79/115/16 83/41/16 82/44/16 78/116/16
f 115/121/8 111/101/8 110/104/8 114/122/8
f 113/123/8 109/105/8 112/108/8 116/124/8
f 105/46/17 113/123/17 116/124/17 108/47/17
f 107/58/18 115/121/18 114/122/18 106/59/18
f 101/70/19 117/45/19 120/48/19 104/71/19
f 103/80/20 119/57/20 118/60/20 102/81/20
f 93/106/8 121/125/8 124/126/8 96/107/8
f 95/102/8 123/127/8 122/128/8 94/103/8
f 121/125/21 125/111/21 128/114/21 124/126/21
f 123/127/21 127/117/21 126/120/21 122/128/21
f 171/129/22 131/130/22 130/131/22 170/132/22
f 205/133/23 193/134/23 196/135/23 208/136/23
f 169/137/22 129/138/22 132/139/22 172/140/22
f 153/141/24 137/142/24 140/143/24 156/144/24
f 207/145/23 195/146/23 194/147/23 206/148/23
f 155/149/24 139/150/24 138/151/24 154/152/24
f 135/153/25 143/154/25 142/155/25 134/156/25
f 185/157/23 189/158/23 192/159/23 188/160/23
f 133/161/25 141/162/25 144/163/25 136/164/25
f 143/154/22 147/165/22 146/166/22 142/155/22
f 187/167/23 191/168/23 190/169/23 186/170/23
f 141/162/22 145/171/22 148/172/22 144/163/22
f 163/173/22 151/174/22 150/175/22 162/176/22
f 177/177/26 185/157/26 188/160/26 180/178/26
f 161/179/22 149/180/22 152/181/22 164/182/22
f 159/183/22 155/149/22 154/152/22 158/184/22
f 179/185/26 187/167/26 186/170/26 178/186/26
f 157/187/22 153/141/22 156/144/22 160/188/22
f 149/180/27 157/187/27 160/188/27 152/181/27
f 199/189/28 183/190/28 182/191/28 198/192/28
f 151/174/27 159/183/27 158/184/27 150/175/27
f 145/171/29 161/179/29 164/182/29 148/172/29
f 197/193/30 181/194/30 184/195/30 200/196/30
f 147/165/29 163/173/29 162/176/29 146/166/29
f 137/142/22 165/197/22 168/198/22 140/143/22
f 213/199/23 173/200/23 176/201/23 216/202/23
f 139/150/22 167/203/22 166/204/22 138/151/22
f 165/197/31 169/137/31 172/140/31 168/198/31
f 215/205/23 175/206/23 174/207/23 214/208/23
f 167/203/31 171/129/31 170/132/31 166/204/31
f 203/209/23 199/189/23 198/192/23 202/210/23
f 201/211/23 197/193/23 200/196/23 204/212/23
f 193/134/32 201/211/32 204/212/32 196/135/32
f 195/146/33 203/209/33 202/210/33 194/147/33
f 189/158/34 205/133/34 208/136/34 192/159/34
f 191/168/34 207/145/34 206/148/34 190/169/34
f 181/194/23 209/213/23 212/214/23 184/195/23
f 183/190/23 211/215/23 210/216/23 182/191/23
f 209/213/35 213/199/35 216/202/35 212/214/35
f 211/215/35 215/205/35 214/208/35 210/216/35
