# Blender v2.92.0 OBJ File: 'Anubis_TwoDoorRoom_Adj.blend'
# www.blender.org
mtllib Anubis_TwoDoorRoom_Adj.mtl
g WallTrim
v 9.890470 0.000220 -9.901466
v 9.890470 0.000220 -0.120527
v 0.109530 0.000220 -9.901466
v 0.109530 0.000220 -0.120527
v 5.998055 0.000220 -9.901466
v 4.001945 0.000220 -9.901466
v 3.475000 0.000220 -0.120527
v 3.502917 0.000220 -9.901466
v 6.497083 0.000220 -9.901466
v 6.525000 0.000220 -0.120527
v 9.900000 1.190000 -9.909091
v 9.900000 1.190000 -0.109091
v 0.100000 1.190000 -0.109091
v 0.100000 1.190000 -9.909091
v 6.000000 1.190000 -9.909091
v 4.000000 1.190000 -9.909091
v 3.500000 1.190000 -9.909091
v 3.500000 1.190000 -0.109091
v 6.500000 1.190000 -0.109091
v 6.500000 1.190000 -9.909091
v 9.900000 0.975800 -9.909091
v 9.900000 0.975800 -0.109091
v 0.100000 0.975800 -0.109091
v 0.100000 0.975800 -9.909091
v 6.000000 0.975800 -9.909091
v 4.000000 0.975800 -9.909091
v 3.500000 0.975800 -9.909091
v 3.500000 0.975800 -0.109091
v 6.500000 0.975800 -0.109091
v 6.500000 0.975800 -9.909091
v 9.886816 1.176903 -0.124910
v 0.113183 1.176903 -0.124910
v 0.113183 1.176903 -9.898544
v 5.997310 1.176903 -9.898544
v 4.002690 1.176903 -9.898544
v 3.504036 1.176903 -9.898544
v 3.504036 1.176903 -0.124910
v 6.495964 1.176903 -0.124910
v 6.495964 1.176903 -9.898544
v 9.886816 1.176903 -9.898544
v 9.886816 1.160986 -9.898544
v 9.886816 1.160986 -0.124910
v 0.113183 1.160986 -0.124910
v 0.113183 1.160986 -9.898544
v 5.997310 1.160986 -9.898544
v 4.002690 1.160986 -9.898544
v 3.504036 1.160986 -9.898544
v 3.504036 1.160986 -0.124910
v 6.495964 1.160986 -0.124910
v 6.495964 1.160986 -9.898544
v 9.900000 1.026342 -9.909091
v 9.900000 1.026342 -0.109091
v 0.100000 1.026342 -0.109091
v 0.100000 1.026342 -9.909091
v 6.000000 1.026342 -9.909091
v 4.000000 1.026342 -9.909091
v 3.500000 1.026342 -9.909091
v 3.500000 1.026342 -0.109091
v 6.500000 1.026342 -0.109091
v 6.500000 1.026342 -9.909091
v 9.893121 0.989110 -9.903588
v 9.893121 0.989110 -0.117345
v 0.106879 0.989110 -0.117345
v 0.106879 0.989110 -9.903588
v 5.998596 0.989110 -9.903588
v 4.001404 0.989110 -9.903588
v 3.502106 0.989110 -9.903588
v 3.502106 0.989110 -0.117345
v 6.497894 0.989110 -0.117345
v 6.497894 0.989110 -9.903588
v 9.893121 1.004421 -0.117345
v 0.106879 1.004421 -0.117345
v 0.106879 1.004421 -9.903588
v 5.998596 1.004421 -9.903588
v 4.001404 1.004421 -9.903588
v 3.502106 1.004421 -9.903588
v 3.502106 1.004421 -0.117345
v 6.497894 1.004421 -0.117345
v 6.497894 1.004421 -9.903588
v 9.893121 1.004421 -9.903588
v 9.900000 1.143133 -0.109091
v 0.100000 1.143133 -0.109091
v 0.100000 1.143133 -9.909091
v 6.000000 1.143133 -9.909091
v 4.000000 1.143133 -9.909091
v 3.500000 1.143133 -9.909091
v 3.500000 1.143133 -0.109091
v 6.500000 1.143133 -0.109091
v 6.500000 1.143133 -9.909091
v 9.900000 1.143133 -9.909091
v 9.900000 0.263466 -9.909091
v 9.900000 0.263466 -0.109091
v 0.100000 0.263466 -0.109091
v 0.100000 0.263466 -9.909091
v 6.000000 0.263466 -9.909091
v 4.000000 0.263466 -9.909091
v 3.500000 0.263466 -9.909091
v 3.500000 0.263466 -0.109091
v 6.500000 0.263466 -0.109091
v 6.500000 0.263466 -9.909091
v 9.890470 0.226360 -9.901466
v 9.890470 0.226360 -0.120527
v 0.109530 0.226360 -0.120527
v 0.109530 0.226360 -9.901466
v 5.998055 0.226360 -9.901466
v 4.001945 0.226360 -9.901466
v 3.502917 0.226360 -9.901466
v 3.475000 0.226360 -0.120527
v 6.525000 0.226360 -0.120527
v 6.497083 0.226360 -9.901466
v 0.111436 0.000220 -0.118621
v 0.111436 0.000220 -9.899561
v 0.111436 0.000220 -6.534091
v 0.111436 0.000220 -3.484091
v 0.099999 1.190000 -0.109091
v 0.100000 1.190000 -9.909091
v 0.100000 1.190000 -6.509091
v 0.100000 1.190000 -3.509091
v 0.099999 0.975800 -0.109091
v 0.100000 0.975800 -9.909091
v 0.100000 0.975800 -6.509091
v 0.100000 0.975800 -3.509091
v 0.115819 1.176903 -0.122275
v 0.115819 1.176903 -9.895908
v 0.115819 1.176903 -6.505055
v 0.115819 1.176903 -3.513127
v 0.115819 1.160986 -0.122275
v 0.115819 1.160986 -9.895908
v 0.115819 1.160986 -6.505055
v 0.115819 1.160986 -3.513127
v 0.099999 1.026342 -0.109091
v 0.100000 1.026342 -9.909091
v 0.100000 1.026342 -6.509091
v 0.100000 1.026342 -3.509091
v 0.108254 0.989110 -0.115970
v 0.108254 0.989110 -9.902212
v 0.108254 0.989110 -6.506985
v 0.108254 0.989110 -3.511197
v 0.108254 1.004421 -0.115970
v 0.108254 1.004421 -9.902212
v 0.108254 1.004421 -6.506985
v 0.108254 1.004421 -3.511197
v 0.099999 1.143133 -0.109091
v 0.100000 1.143133 -9.909091
v 0.100000 1.143133 -6.509091
v 0.100000 1.143133 -3.509091
v 0.099999 0.263466 -0.109091
v 0.100000 0.263466 -9.909091
v 0.100000 0.263466 -6.509091
v 0.100000 0.263466 -3.509091
v 0.111436 0.226360 -0.118621
v 0.111436 0.226360 -9.899561
v 0.111436 0.226360 -6.534091
v 0.111436 0.226360 -3.484091
vt 0.271161 0.525787
vt 0.271161 0.525787
vt 0.271161 0.525787
vt 0.271161 0.525787
vt 0.271161 0.525787
vt 0.271161 0.525787
vt 0.271161 0.525787
vt 0.271161 0.525787
vt 0.271161 0.525787
vt 0.271161 0.525787
vt 0.271161 0.525787
vt 0.271161 0.525787
vt 0.271161 0.525787
vt 0.271161 0.525787
vt 0.271161 0.525787
vt 0.271161 0.525787
vt 0.271161 0.525787
vt 0.271161 0.525787
vt 0.271161 0.525787
vt 0.271161 0.525787
vt 0.271161 0.525787
vt 0.271161 0.525787
vt 0.271161 0.525787
vt 0.271161 0.525787
vt 0.271161 0.525787
vt 0.271161 0.525787
vt 0.271161 0.525787
vt 0.271161 0.525787
vt 0.271161 0.525787
vt 0.271161 0.525787
vt 0.271161 0.525787
vt 0.271161 0.525787
vt 0.271161 0.525787
vt 0.271161 0.525787
vt 0.271161 0.525787
vt 0.271161 0.525787
vt 0.271161 0.525787
vt 0.271161 0.525787
vt 0.271161 0.525787
vt 0.271161 0.525787
vt 0.271161 0.525787
vt 0.271161 0.525787
vt 0.271161 0.525787
vt 0.271161 0.525787
vt 0.271161 0.525787
vt 0.271161 0.525787
vt 0.271161 0.525787
vt 0.271161 0.525787
vt 0.271161 0.525787
vt 0.271161 0.525787
vt 0.271161 0.525787
vt 0.271161 0.525787
vt 0.271161 0.525787
vt 0.271161 0.525787
vt 0.271161 0.525787
vt 0.271161 0.525787
vt 0.271161 0.525787
vt 0.271161 0.525787
vt 0.271161 0.525787
vt 0.271161 0.525787
vt 0.271161 0.525787
vt 0.271161 0.525787
vt 0.271161 0.525787
vt 0.271161 0.525787
vt 0.271161 0.525787
vt 0.271161 0.525787
vt 0.271161 0.525787
vt 0.271161 0.525787
vt 0.271161 0.525787
vt 0.271161 0.525787
vt 0.271161 0.525787
vt 0.271161 0.525787
vt 0.271161 0.525787
vt 0.271161 0.525787
vt 0.271161 0.525787
vt 0.271161 0.525787
vt 0.271161 0.525787
vt 0.271161 0.525787
vt 0.271161 0.525787
vt 0.271161 0.525787
vt 0.271161 0.525787
vt 0.271161 0.525787
vt 0.271161 0.525787
vt 0.271161 0.525787
vt 0.271161 0.525787
vt 0.271161 0.525787
vt 0.271161 0.525787
vt 0.271161 0.525787
vt 0.271161 0.525787
vt 0.271161 0.525787
vt 0.271161 0.525787
vt 0.271161 0.525787
vt 0.271161 0.525787
vt 0.271161 0.525787
vt 0.271161 0.525787
vt 0.271161 0.525787
vt 0.271161 0.525787
vt 0.271161 0.525787
vt 0.271161 0.525787
vt 0.271161 0.525787
vt 0.271161 0.525787
vt 0.271161 0.525787
vt 0.271161 0.525787
vt 0.271161 0.525787
vt 0.271161 0.525787
vt 0.271161 0.525787
vt 0.271161 0.525787
vt 0.271161 0.525787
vt 0.271161 0.525787
vt 0.271161 0.525787
vt 0.271161 0.525787
vt 0.271161 0.525787
vt 0.271161 0.525787
vt 0.271161 0.525787
vt 0.271161 0.525787
vt 0.271161 0.525787
vt 0.271161 0.525787
vt 0.271161 0.525787
vt 0.271161 0.525787
vt 0.271161 0.525787
vt 0.271161 0.525787
vt 0.271161 0.525787
vt 0.271161 0.525787
vt 0.271161 0.525787
vt 0.271161 0.525787
vt 0.271161 0.525787
vt 0.271161 0.525787
vt 0.271161 0.525787
vt 0.271161 0.525787
vt 0.271161 0.525787
vt 0.271161 0.525787
vt 0.271161 0.525787
vt 0.271161 0.525787
vt 0.271161 0.525787
vt 0.271161 0.525787
vt 0.271161 0.525787
vt 0.271161 0.525787
vt 0.271161 0.525787
vt 0.271161 0.525787
vt 0.271161 0.525787
vt 0.271161 0.525787
vt 0.271161 0.525787
vt 0.271161 0.525787
vt 0.271161 0.525787
vt 0.271161 0.525787
vt 0.271161 0.525787
vt 0.271161 0.525787
vt 0.271161 0.525787
vt 0.271161 0.525787
vt 0.271161 0.525787
vt 0.271161 0.525787
vt 0.271161 0.525787
vt 0.271161 0.525787
vt 0.271161 0.525787
vn -1.0000 0.0000 0.0000
vn 0.0000 0.0000 -1.0000
vn 1.0000 0.0000 0.0000
vn 0.0000 0.0000 1.0000
vn 0.0000 -0.3821 0.9241
vn 0.0000 -0.5270 -0.8498
vn -0.8884 -0.4591 0.0000
vn -0.7048 0.7094 0.0000
vn 0.0000 0.7703 -0.6377
vn 0.0000 0.6272 0.7789
vn 0.6377 0.7703 0.0000
vn 0.0000 0.2435 0.9699
vn 0.0000 0.3524 -0.9358
vn 0.8498 -0.5270 0.0000
vn -0.9541 0.2994 0.0000
vn 0.0000 -0.5086 0.8610
vn 0.0000 -0.6632 -0.7484
vn -0.8044 -0.5941 0.0000
vn 0.0000 0.2013 0.9795
vn 0.0000 0.2945 -0.9556
vn -0.9686 0.2488 0.0000
vn 0.9358 0.3524 0.0000
vn 0.7484 -0.6632 0.0000
vn 0.9556 0.2945 0.0000
usemtl Material.002
s off
f 101/1/1 1/2/1 2/3/1 102/4/1
f 108/5/2 7/6/2 4/7/2 103/8/2
f 143/9/3 131/10/3 134/11/3 146/12/3
f 110/13/4 9/14/4 1/2/4 101/1/4
f 106/15/4 6/16/4 5/17/4 105/18/4
f 107/19/4 8/20/4 6/16/4 106/15/4
f 104/21/4 3/22/4 8/20/4 107/19/4
f 102/4/2 2/3/2 10/23/2 109/24/2
f 105/18/4 5/17/4 9/14/4 110/13/4
f 65/25/5 25/26/5 30/27/5 70/28/5
f 62/29/6 22/30/6 29/31/6 69/32/6
f 64/33/5 24/34/5 27/35/5 67/36/5
f 67/36/5 27/35/5 26/37/5 66/38/5
f 66/38/5 26/37/5 25/26/5 65/25/5
f 70/28/5 30/27/5 21/39/5 61/40/5
f 145/41/3 133/42/3 132/43/3 144/44/3
f 68/45/6 28/46/6 23/47/6 63/48/6
f 61/40/7 21/39/7 22/30/7 62/29/7
f 11/49/8 40/50/8 31/51/8 12/52/8
f 18/53/9 37/54/9 32/55/9 13/56/9
f 123/57/3 127/58/3 130/59/3 126/60/3
f 20/61/10 39/62/10 40/50/10 11/49/10
f 16/63/10 35/64/10 34/65/10 15/66/10
f 17/67/10 36/68/10 35/64/10 16/63/10
f 14/69/10 33/70/10 36/68/10 17/67/10
f 12/52/9 31/51/9 38/71/9 19/72/9
f 15/66/10 34/65/10 39/62/10 20/61/10
f 40/50/1 41/73/1 42/74/1 31/51/1
f 37/54/2 48/75/2 43/76/2 32/55/2
f 125/77/3 129/78/3 128/79/3 124/80/3
f 39/62/4 50/81/4 41/73/4 40/50/4
f 35/64/4 46/82/4 45/83/4 34/65/4
f 36/68/4 47/84/4 46/82/4 35/64/4
f 33/70/4 44/85/4 47/84/4 36/68/4
f 31/51/2 42/74/2 49/86/2 38/71/2
f 34/65/4 45/83/4 50/81/4 39/62/4
f 90/87/1 51/88/1 52/89/1 81/90/1
f 87/91/2 58/92/2 53/93/2 82/94/2
f 115/95/11 123/57/11 126/60/11 118/96/11
f 89/97/4 60/98/4 51/88/4 90/87/4
f 85/99/4 56/100/4 55/101/4 84/102/4
f 86/103/4 57/104/4 56/100/4 85/99/4
f 83/105/4 54/106/4 57/104/4 86/103/4
f 81/90/2 52/89/2 59/107/2 88/108/2
f 84/102/4 55/101/4 60/98/4 89/97/4
f 80/109/1 61/40/1 62/29/1 71/110/1
f 77/111/2 68/45/2 63/48/2 72/112/2
f 117/113/11 125/77/11 124/80/11 116/114/11
f 79/115/4 70/28/4 61/40/4 80/109/4
f 75/116/4 66/38/4 65/25/4 74/117/4
f 76/118/4 67/36/4 66/38/4 75/116/4
f 73/119/4 64/33/4 67/36/4 76/118/4
f 71/110/2 62/29/2 69/32/2 78/120/2
f 74/117/4 65/25/4 70/28/4 79/115/4
f 55/101/12 74/117/12 79/115/12 60/98/12
f 52/89/13 71/110/13 78/120/13 59/107/13
f 54/106/12 73/119/12 76/118/12 57/104/12
f 57/104/12 76/118/12 75/116/12 56/100/12
f 56/100/12 75/116/12 74/117/12 55/101/12
f 60/98/12 79/115/12 80/109/12 51/88/12
f 137/121/14 121/122/14 120/123/14 136/124/14
f 58/92/13 77/111/13 72/112/13 53/93/13
f 51/88/15 80/109/15 71/110/15 52/89/15
f 45/83/16 84/102/16 89/97/16 50/81/16
f 42/74/17 81/90/17 88/108/17 49/86/17
f 44/85/16 83/105/16 86/103/16 47/84/16
f 47/84/16 86/103/16 85/99/16 46/82/16
f 46/82/16 85/99/16 84/102/16 45/83/16
f 50/81/16 89/97/16 90/87/16 41/73/16
f 135/125/14 119/126/14 122/127/14 138/128/14
f 48/75/17 87/91/17 82/94/17 43/76/17
f 41/73/18 90/87/18 81/90/18 42/74/18
f 25/26/4 95/129/4 100/130/4 30/27/4
f 22/30/2 92/131/2 99/132/2 29/31/2
f 24/34/4 94/133/4 97/134/4 27/35/4
f 27/35/4 97/134/4 96/135/4 26/37/4
f 26/37/4 96/135/4 95/129/4 25/26/4
f 30/27/4 100/130/4 91/136/4 21/39/4
f 151/137/3 111/138/3 114/139/3 154/140/3
f 28/46/2 98/141/2 93/142/2 23/47/2
f 21/39/1 91/136/1 92/131/1 22/30/1
f 95/129/19 105/18/19 110/13/19 100/130/19
f 92/131/20 102/4/20 109/24/20 99/132/20
f 94/133/19 104/21/19 107/19/19 97/134/19
f 97/134/19 107/19/19 106/15/19 96/135/19
f 96/135/19 106/15/19 105/18/19 95/129/19
f 100/130/19 110/13/19 101/1/19 91/136/19
f 153/143/3 113/144/3 112/145/3 152/146/3
f 98/141/20 108/5/20 103/8/20 93/142/20
f 91/136/21 101/1/21 102/4/21 92/131/21
f 141/147/3 137/121/3 136/124/3 140/148/3
f 139/149/3 135/125/3 138/128/3 142/150/3
f 131/10/22 139/149/22 142/150/22 134/11/22
f 133/42/22 141/147/22 140/148/22 132/43/22
f 127/58/23 143/9/23 146/12/23 130/59/23
f 129/78/23 145/41/23 144/44/23 128/79/23
f 119/126/3 147/151/3 150/152/3 122/127/3
f 121/122/3 149/153/3 148/154/3 120/123/3
f 147/151/24 151/137/24 154/140/24 150/152/24
f 149/153/24 153/143/24 152/146/24 148/154/24
g Floor
v 10.000000 0.000000 -10.000000
v 10.000000 0.000000 0.000000
v 0.000000 0.000000 -10.000000
v 0.000000 0.000000 0.000000
vt 0.014862 0.525787
vt 0.014862 0.525787
vt 0.014862 0.525787
vt 0.014862 0.525787
vn 0.0000 1.0000 0.0000
usemtl Material.002
s off
f 156/155/25 155/156/25 157/157/25 158/158/25
g Walls
v 9.900000 7.800000 -9.909091
v 9.900000 7.800000 -0.109091
v 0.100000 7.800000 -9.909091
v 0.100000 7.800000 -0.109091
v 9.900000 3.500000 -9.909091
v 9.900000 3.500000 -0.109091
v 9.900000 4.500000 -0.109091
v 9.900000 4.500000 -9.909091
v 3.500000 4.500000 -0.109091
v 6.500000 4.500000 -0.109091
v 9.900000 1.190000 -9.909091
v 9.900000 1.190000 -0.109091
v 0.100000 1.190000 -0.109091
v 0.100000 1.190000 -9.909091
v 3.500000 1.190000 -0.109091
v 6.500000 1.190000 -0.109091
v 0.100000 7.800000 -0.109091
v 0.100000 7.800000 -9.909091
v 0.100000 4.500000 -6.509091
v 0.100000 4.500000 -3.509091
v 0.100000 1.190000 -0.109091
v 0.100000 1.190000 -9.909091
v 0.100000 1.190000 -6.509091
v 0.100000 1.190000 -3.509091
vt 0.101673 0.426575
vt 0.101673 0.426575
vt 0.101673 0.426575
vt 0.101673 0.426575
vt 0.101673 0.426575
vt 0.101673 0.426575
vt 0.101673 0.426575
vt 0.101673 0.426575
vt 0.101673 0.426575
vt 0.101673 0.426575
vt 0.101673 0.426575
vt 0.101673 0.426575
vt 0.101673 0.426575
vt 0.101673 0.426575
vt 0.101673 0.426575
vt 0.101673 0.426575
vt 0.101673 0.426575
vt 0.101673 0.426575
vt 0.101673 0.426575
vt 0.101673 0.426575
vt 0.101673 0.426575
vt 0.101673 0.426575
vt 0.101673 0.426575
vt 0.101673 0.426575
vn 0.0000 0.0000 -1.0000
vn -1.0000 0.0000 0.0000
vn 0.0000 0.0000 1.0000
vn 1.0000 0.0000 0.0000
usemtl Material.002
s off
f 160/159/26 165/160/26 164/161/26 170/162/26 174/163/26 168/164/26 167/165/26 173/166/26 171/167/26 162/168/26
f 159/169/27 166/170/27 163/171/27 169/172/27 170/162/27 164/161/27 165/160/27 160/159/27
f 172/173/28 169/172/28 163/171/28 166/170/28 159/169/28 161/174/28
f 181/175/29 180/176/29 176/177/29 175/178/29 179/179/29 182/180/29 178/181/29 177/182/29
g Ceiling
v 9.900000 7.800000 -9.909091
v 9.900000 7.800000 -0.109091
v 0.100000 7.800000 -9.909091
v 0.100000 7.800000 -0.109091
vt 0.721752 0.426575
vt 0.721752 0.426575
vt 0.721752 0.426575
vt 0.721752 0.426575
vn 0.0000 -1.0000 0.0000
usemtl Material.002
s off
f 184/183/30 186/184/30 185/185/30 183/186/30
