# Blender v2.92.0 OBJ File: 'Anubis_TwoDoorRoom_Par.blend'
# www.blender.org
mtllib Anubis_TwoDoorRoom_Par.mtl
g WallTrim
v 9.890470 0.000220 -9.901466
v 9.890470 0.000220 -0.120527
v 0.109530 0.000220 -9.901466
v 0.109530 0.000220 -0.120527
v 3.475000 0.226360 -9.897655
v 6.525000 0.226360 -9.897655
v 3.475000 0.000220 -0.120527
v 9.890471 0.226360 -9.897655
v 0.109530 0.226360 -9.897655
v 6.525000 0.000220 -0.120527
v 9.900000 1.190000 -9.909091
v 9.900000 1.190000 -0.109091
v 0.100000 1.190000 -0.109091
v 0.100000 1.190000 -9.909091
v 3.500000 0.263466 -9.909091
v 6.500000 0.263466 -9.909091
v 9.900000 0.263466 -9.909092
v 3.500000 1.190000 -0.109091
v 6.500000 1.190000 -0.109091
v 0.100000 0.263466 -9.909091
v 9.900000 0.975800 -9.909091
v 9.900000 0.975800 -0.109091
v 0.100000 0.975800 -0.109091
v 0.100000 0.975800 -9.909091
v 3.500000 1.143133 -9.909091
v 6.500000 1.143133 -9.909091
v 9.900000 1.143133 -9.909092
v 3.500000 0.975800 -0.109091
v 6.500000 0.975800 -0.109091
v 0.100000 1.143133 -9.909091
v 9.886816 1.176903 -0.124910
v 0.113183 1.176903 -0.124910
v 0.113183 1.176903 -9.898544
v 3.502106 1.004421 -9.900837
v 6.497894 1.004421 -9.900837
v 9.893122 1.004421 -9.900837
v 3.504036 1.176903 -0.124910
v 6.495964 1.176903 -0.124910
v 0.106879 1.004421 -9.900836
v 9.886816 1.176903 -9.898544
v 9.886816 1.160986 -9.898544
v 9.886816 1.160986 -0.124910
v 0.113183 1.160986 -0.124910
v 0.113183 1.160986 -9.898544
v 3.502106 0.989110 -9.900837
v 6.497894 0.989110 -9.900837
v 9.893122 0.989110 -9.900837
v 3.504036 1.160986 -0.124910
v 6.495964 1.160986 -0.124910
v 0.106879 0.989110 -9.900836
v 9.900000 1.026342 -9.909091
v 9.900000 1.026342 -0.109091
v 0.100000 1.026342 -0.109091
v 0.100000 1.026342 -9.909091
v 3.500000 1.026342 -9.909091
v 6.500000 1.026342 -9.909091
v 9.900000 1.026342 -9.909092
v 3.500000 1.026342 -0.109091
v 6.500000 1.026342 -0.109091
v 0.100000 1.026342 -9.909091
v 9.893121 0.989110 -9.903588
v 9.893121 0.989110 -0.117345
v 0.106879 0.989110 -0.117345
v 0.106879 0.989110 -9.903588
v 3.504036 1.160986 -9.893271
v 6.495964 1.160986 -9.893271
v 9.886817 1.160986 -9.893272
v 3.502106 0.989110 -0.117345
v 6.497894 0.989110 -0.117345
v 0.113184 1.160986 -9.893271
v 9.893121 1.004421 -0.117345
v 0.106879 1.004421 -0.117345
v 0.106879 1.004421 -9.903588
v 3.504036 1.176903 -9.893271
v 6.495964 1.176903 -9.893271
v 9.886817 1.176903 -9.893272
v 3.502106 1.004421 -0.117345
v 6.497894 1.004421 -0.117345
v 0.113184 1.176903 -9.893271
v 9.893121 1.004421 -9.903588
v 9.900000 1.143133 -0.109091
v 0.100000 1.143133 -0.109091
v 0.100000 1.143133 -9.909091
v 3.500000 0.975800 -9.909091
v 6.500000 0.975800 -9.909091
v 9.900000 0.975800 -9.909092
v 3.500000 1.143133 -0.109091
v 6.500000 1.143133 -0.109091
v 0.100000 0.975800 -9.909091
v 9.900000 1.143133 -9.909091
v 9.900000 0.263466 -9.909091
v 9.900000 0.263466 -0.109091
v 0.100000 0.263466 -0.109091
v 0.100000 0.263466 -9.909091
v 3.500000 1.190000 -9.909091
v 6.500000 1.190000 -9.909091
v 9.900000 1.190000 -9.909092
v 3.500000 0.263466 -0.109091
v 6.500000 0.263466 -0.109091
v 0.100000 1.190000 -9.909091
v 9.890470 0.226360 -9.901466
v 9.890470 0.226360 -0.120527
v 0.109530 0.226360 -0.120527
v 0.109530 0.226360 -9.901466
v 3.475000 0.000220 -9.897655
v 6.525000 0.000220 -9.897655
v 9.890471 0.000220 -9.897655
v 3.475000 0.226360 -0.120527
v 6.525000 0.226360 -0.120527
v 0.109530 0.000220 -9.897655
vt 0.271161 0.525787
vt 0.271161 0.525787
vt 0.271161 0.525787
vt 0.271161 0.525787
vt 0.271161 0.525787
vt 0.271161 0.525787
vt 0.271161 0.525787
vt 0.271161 0.525787
vt 0.271161 0.525787
vt 0.271161 0.525787
vt 0.271161 0.525787
vt 0.271161 0.525787
vt 0.271161 0.525787
vt 0.271161 0.525787
vt 0.271161 0.525787
vt 0.271161 0.525787
vt 0.271161 0.525787
vt 0.271161 0.525787
vt 0.271161 0.525787
vt 0.271161 0.525787
vt 0.271161 0.525787
vt 0.271161 0.525787
vt 0.271161 0.525787
vt 0.271161 0.525787
vt 0.271161 0.525787
vt 0.271161 0.525787
vt 0.271161 0.525787
vt 0.271161 0.525787
vt 0.271161 0.525787
vt 0.271161 0.525787
vt 0.271161 0.525787
vt 0.271161 0.525787
vt 0.271161 0.525787
vt 0.271161 0.525787
vt 0.271161 0.525787
vt 0.271161 0.525787
vt 0.271161 0.525787
vt 0.271161 0.525787
vt 0.271161 0.525787
vt 0.271161 0.525787
vt 0.271161 0.525787
vt 0.271161 0.525787
vt 0.271161 0.525787
vt 0.271161 0.525787
vt 0.271161 0.525787
vt 0.271161 0.525787
vt 0.271161 0.525787
vt 0.271161 0.525787
vt 0.271161 0.525787
vt 0.271161 0.525787
vt 0.271161 0.525787
vt 0.271161 0.525787
vt 0.271161 0.525787
vt 0.271161 0.525787
vt 0.271161 0.525787
vt 0.271161 0.525787
vt 0.271161 0.525787
vt 0.271161 0.525787
vt 0.271161 0.525787
vt 0.271161 0.525787
vt 0.271161 0.525787
vt 0.271161 0.525787
vt 0.271161 0.525787
vt 0.271161 0.525787
vt 0.271161 0.525787
vt 0.271161 0.525787
vt 0.271161 0.525787
vt 0.271161 0.525787
vt 0.271161 0.525787
vt 0.271161 0.525787
vt 0.271161 0.525787
vt 0.271161 0.525787
vt 0.271161 0.525787
vt 0.271161 0.525787
vt 0.271161 0.525787
vt 0.271161 0.525787
vt 0.271161 0.525787
vt 0.271161 0.525787
vt 0.271161 0.525787
vt 0.271161 0.525787
vt 0.271161 0.525787
vt 0.271161 0.525787
vt 0.271161 0.525787
vt 0.271161 0.525787
vt 0.271161 0.525787
vt 0.271161 0.525787
vt 0.271161 0.525787
vt 0.271161 0.525787
vt 0.271161 0.525787
vt 0.271161 0.525787
vt 0.271161 0.525787
vt 0.271161 0.525787
vt 0.271161 0.525787
vt 0.271161 0.525787
vt 0.271161 0.525787
vt 0.271161 0.525787
vt 0.271161 0.525787
vt 0.271161 0.525787
vt 0.271161 0.525787
vt 0.271161 0.525787
vt 0.271161 0.525787
vt 0.271161 0.525787
vt 0.271161 0.525787
vt 0.271161 0.525787
vt 0.271161 0.525787
vt 0.271161 0.525787
vt 0.271161 0.525787
vt 0.271161 0.525787
vt 0.271161 0.525787
vt 0.271161 0.525787
vn -1.0000 0.0000 0.0000
vn 0.0000 0.0000 -1.0000
vn 1.0000 0.0000 0.0000
vn 0.0000 -0.5270 -0.8498
vn 0.8884 -0.4591 0.0000
vn -0.8884 -0.4591 0.0000
vn -0.7048 0.7094 0.0000
vn 0.0000 0.7703 -0.6377
vn 0.7048 0.7094 0.0000
vn 0.0000 0.2945 0.9556
vn 0.0000 0.3524 -0.9358
vn 0.0000 0.0000 1.0000
vn 0.0000 -0.6632 0.7484
vn 0.9541 0.2994 0.0000
vn -0.9541 0.2994 0.0000
vn 0.0000 -0.6632 -0.7484
vn 0.0000 0.3524 0.9358
vn 0.8044 -0.5940 0.0000
vn -0.8044 -0.5941 0.0000
vn 0.0000 0.7703 0.6377
vn 0.0000 0.2945 -0.9556
vn 0.0000 -0.5270 0.8498
vn 0.9686 0.2488 0.0000
vn -0.9686 0.2488 0.0000
usemtl Material.002
s off
f 101/1/1 1/2/1 2/3/1 102/4/1
f 108/5/2 7/6/2 4/7/2 103/8/2
f 103/8/3 4/7/3 3/9/3 104/10/3
f 102/4/2 2/3/2 10/11/2 109/12/2
f 62/13/4 22/14/4 29/15/4 69/16/4
f 63/17/5 23/18/5 24/19/5 64/20/5
f 68/21/4 28/22/4 23/18/4 63/17/4
f 61/23/6 21/24/6 22/14/6 62/13/6
f 11/25/7 40/26/7 31/27/7 12/28/7
f 18/29/8 37/30/8 32/31/8 13/32/8
f 13/32/9 32/31/9 33/33/9 14/34/9
f 12/28/8 31/27/8 38/35/8 19/36/8
f 40/26/1 41/37/1 42/38/1 31/27/1
f 37/30/2 48/39/2 43/40/2 32/31/2
f 32/31/3 43/40/3 44/41/3 33/33/3
f 31/27/2 42/38/2 49/42/2 38/35/2
f 90/43/1 51/44/1 52/45/1 81/46/1
f 87/47/2 58/48/2 53/49/2 82/50/2
f 82/50/3 53/49/3 54/51/3 83/52/3
f 81/46/2 52/45/2 59/53/2 88/54/2
f 80/55/1 61/23/1 62/13/1 71/56/1
f 77/57/2 68/21/2 63/17/2 72/58/2
f 72/58/3 63/17/3 64/20/3 73/59/3
f 71/56/2 62/13/2 69/16/2 78/60/2
f 16/61/10 6/62/10 8/63/10 17/64/10
f 52/45/11 71/56/11 78/60/11 59/53/11
f 20/65/10 9/66/10 5/67/10 15/68/10
f 85/69/12 16/61/12 17/64/12 86/70/12
f 89/71/12 20/65/12 15/68/12 84/72/12
f 66/73/13 26/74/13 27/75/13 67/76/13
f 53/49/14 72/58/14 73/59/14 54/51/14
f 58/48/11 77/57/11 72/58/11 53/49/11
f 51/44/15 80/55/15 71/56/15 52/45/15
f 70/77/13 30/78/13 25/79/13 65/80/13
f 42/38/16 81/46/16 88/54/16 49/42/16
f 56/81/17 35/82/17 36/83/17 57/84/17
f 60/85/17 39/86/17 34/87/17 55/88/17
f 39/86/12 50/89/12 45/90/12 34/87/12
f 35/82/12 46/91/12 47/92/12 36/83/12
f 43/40/18 82/50/18 83/52/18 44/41/18
f 48/39/16 87/47/16 82/50/16 43/40/16
f 41/37/19 90/43/19 81/46/19 42/38/19
f 30/78/12 60/85/12 55/88/12 25/79/12
f 22/14/2 92/93/2 99/94/2 29/15/2
f 26/74/12 56/81/12 57/84/12 27/75/12
f 79/95/12 70/77/12 65/80/12 74/96/12
f 75/97/12 66/73/12 67/76/12 76/98/12
f 100/99/20 79/95/20 74/96/20 95/100/20
f 23/18/3 93/101/3 94/102/3 24/19/3
f 28/22/2 98/103/2 93/101/2 23/18/2
f 21/24/1 91/104/1 92/93/1 22/14/1
f 96/105/20 75/97/20 76/98/20 97/106/20
f 92/93/21 102/4/21 109/12/21 99/94/21
f 46/91/22 85/69/22 86/70/22 47/92/22
f 50/89/22 89/71/22 84/72/22 45/90/22
f 9/66/12 110/107/12 105/108/12 5/67/12
f 6/62/12 106/109/12 107/110/12 8/63/12
f 93/101/23 103/8/23 104/10/23 94/102/23
f 98/103/21 108/5/21 103/8/21 93/101/21
f 91/104/24 101/1/24 102/4/24 92/93/24
g Floor
v 10.000000 0.000000 -10.000000
v 10.000000 0.000000 0.000000
v 0.000000 0.000000 -10.000000
v 0.000000 0.000000 0.000000
vt 0.014862 0.525787
vt 0.014862 0.525787
vt 0.014862 0.525787
vt 0.014862 0.525787
vn 0.0000 1.0000 0.0000
usemtl Material.002
s off
f 114/111/25 112/112/25 111/113/25 113/114/25
g Walls
v 9.900000 7.800000 -9.909091
v 9.900000 7.800000 -0.109091
v 0.100000 7.800000 -9.909091
v 0.100000 7.800000 -0.109091
v 9.900000 3.500000 -9.909091
v 9.900000 3.500000 -0.109091
v 0.100000 3.500000 -0.109091
v 0.100000 3.500000 -9.909091
v 9.900000 4.500000 -0.109091
v 0.100000 4.500000 -0.109091
v 0.100000 4.500000 -9.909091
v 9.900000 4.500000 -9.909091
v 3.500000 4.500000 -0.109091
v 6.500000 4.500000 -0.109091
v 9.900000 1.190000 -9.909091
v 9.900000 1.190000 -0.109091
v 0.100000 1.190000 -0.109091
v 0.100000 1.190000 -9.909091
v 3.500000 1.190000 -0.109091
v 6.500000 1.190000 -0.109091
v 0.100000 7.800000 -9.909091
v 9.900000 7.800000 -9.909091
v 0.100000 3.500000 -9.909091
v 9.900000 3.500000 -9.909091
v 0.100000 4.500000 -9.909091
v 9.900000 4.500000 -9.909091
v 6.500000 4.500000 -9.909091
v 3.500000 4.500000 -9.909091
v 0.100000 1.190000 -9.909091
v 9.900000 1.190000 -9.909091
v 6.500000 1.190000 -9.909091
v 3.500000 1.190000 -9.909091
vt 0.101673 0.426575
vt 0.101673 0.426575
vt 0.101673 0.426575
vt 0.101673 0.426575
vt 0.101673 0.426575
vt 0.101673 0.426575
vt 0.101673 0.426575
vt 0.101673 0.426575
vt 0.101673 0.426575
vt 0.101673 0.426575
vt 0.101673 0.426575
vt 0.101673 0.426575
vt 0.101673 0.426575
vt 0.101673 0.426575
vt 0.101673 0.426575
vt 0.101673 0.426575
vt 0.101673 0.426575
vt 0.101673 0.426575
vt 0.101673 0.426575
vt 0.101673 0.426575
vt 0.101673 0.426575
vt 0.101673 0.426575
vt 0.101673 0.426575
vt 0.101673 0.426575
vt 0.101673 0.426575
vt 0.101673 0.426575
vt 0.101673 0.426575
vt 0.101673 0.426575
vt 0.101673 0.426575
vt 0.101673 0.426575
vt 0.101673 0.426575
vt 0.101673 0.426575
vn 1.0000 0.0000 0.0000
vn -1.0000 0.0000 0.0000
vn 0.0000 0.0000 -1.0000
vn 0.0000 0.0000 1.0000
usemtl Material.002
s off
f 118/115/26 124/116/26 121/117/26 131/118/26 132/119/26 122/120/26 125/121/26 117/122/26
f 115/123/27 126/124/27 119/125/27 129/126/27 130/127/27 120/128/27 123/129/27 116/130/27
f 133/131/28 131/118/28 121/117/28 124/116/28 118/115/28 116/130/28 123/129/28 120/128/28 130/127/28 134/132/28 128/133/28 127/134/28
f 145/135/29 144/136/29 138/137/29 140/138/29 136/139/29 135/140/29 139/141/29 137/142/29 143/143/29 146/144/29 142/145/29 141/146/29
g Ceiling
v 9.900000 7.800000 -9.909091
v 9.900000 7.800000 -0.109091
v 0.100000 7.800000 -9.909091
v 0.100000 7.800000 -0.109091
vt 0.721752 0.426575
vt 0.721752 0.426575
vt 0.721752 0.426575
vt 0.721752 0.426575
vn 0.0000 -1.0000 0.0000
usemtl Material.002
s off
f 148/147/30 150/148/30 149/149/30 147/150/30
